<svg width="120" height="120" viewBox="0 0 120 120" fill="none" xmlns="http://www.w3.org/2000/svg">
  <defs>
    <linearGradient id="badge" x1="14" y1="14" x2="106" y2="106" gradientUnits="userSpaceOnUse">
      <stop offset="0" stop-color="#1c1c1c" />
      <stop offset="1" stop-color="#050505" />
    </linearGradient>
  </defs>

  <rect x="14" y="14" width="92" height="92" rx="24" fill="url(#badge)" />
  <rect x="14.75" y="14.75" width="90.5" height="90.5" rx="23.25" stroke="#ffffff" stroke-opacity="0.12" stroke-width="1.5" />

  <!-- Code bracket + cursor ("code" + "click"), 24px grid scaled into the badge -->
  <g transform="translate(26 26) scale(2.85)" color="#ffffff">
    <path d="M9 7 4 12l5 5" stroke="currentColor" stroke-width="2.4" stroke-linecap="round" stroke-linejoin="round" />
    <path transform="translate(9.6 6.8) scale(0.55)" d="M4.037 4.688a.495.495 0 0 1 .651-.651l16 6.5a.5.5 0 0 1-.063.947l-6.124 1.58a2 2 0 0 0-1.438 1.435l-1.579 6.126a.5.5 0 0 1-.947.063z" fill="currentColor" stroke="currentColor" stroke-width="2" stroke-linejoin="round" />
  </g>
</svg>
